<svg xmlns="http://www.w3.org/2000/svg" style="display:none">

  <!-- INFORMÁTICA -->
  <symbol id="icon-java" viewBox="0 0 24 24">
    <path d="M6 18h12M8 14c2 1 6 1 8 0M9 10c1 1 5 1 6 0"/>
  </symbol>

  <symbol id="icon-python" viewBox="0 0 24 24">
    <rect x="4" y="4" width="7" height="7" rx="2"/>
    <rect x="13" y="13" width="7" height="7" rx="2"/>
  </symbol>

  <symbol id="icon-database" viewBox="0 0 24 24">
    <ellipse cx="12" cy="5" rx="7" ry="3"/>
    <path d="M5 5v10c0 2 14 2 14 0V5"/>
  </symbol>

  <symbol id="icon-html" viewBox="0 0 24 24">
    <path d="M4 3h16l-2 18-6 2-6-2z"/>
  </symbol>

  <!-- DANZA -->
  <symbol id="icon-dance" viewBox="0 0 24 24">
    <circle cx="12" cy="5" r="2"/>
    <path d="M12 7v6l4 4"/>
  </symbol>

  <symbol id="icon-group" viewBox="0 0 24 24">
    <circle cx="8" cy="10" r="2"/>
    <circle cx="16" cy="10" r="2"/>
    <path d="M4 18c0-2 4-2 4-2s4 0 4 2"/>
    <path d="M12 18c0-2 4-2 4-2s4 0 4 2"/>
  </symbol>

  <symbol id="icon-stage" viewBox="0 0 24 24">
    <rect x="3" y="10" width="18" height="6"/>
    <path d="M6 10V6M18 10V6"/>
  </symbol>

  <!-- FOTOGRAFÍA -->
  <symbol id="icon-camera" viewBox="0 0 24 24">
    <rect x="3" y="7" width="18" height="12" rx="2"/>
    <circle cx="12" cy="13" r="3"/>
  </symbol>

  <symbol id="icon-light" viewBox="0 0 24 24">
    <circle cx="12" cy="10" r="4"/>
    <path d="M12 2v2M12 20v2M4 10H2M22 10h-2"/>
  </symbol>

</svg>