<?xml version="1.0" encoding="UTF-8" standalone="no"?>
<!-- Created with Inkscape (http://www.inkscape.org/) -->

<svg
   version="1.1"
   id="svg1"
   width="800"
   height="800"
   viewBox="0 0 800 800"
   sodipodi:docname="maleta.svg"
   inkscape:version="1.4.2 (f4327f4, 2025-05-13)"
   xmlns:inkscape="http://www.inkscape.org/namespaces/inkscape"
   xmlns:sodipodi="http://sodipodi.sourceforge.net/DTD/sodipodi-0.dtd"
   xmlns="http://www.w3.org/2000/svg"
   xmlns:svg="http://www.w3.org/2000/svg">
  <defs
     id="defs1" />
  <sodipodi:namedview
     id="namedview1"
     pagecolor="#ffffff"
     bordercolor="#000000"
     borderopacity="0.25"
     inkscape:showpageshadow="2"
     inkscape:pageopacity="0.0"
     inkscape:pagecheckerboard="0"
     inkscape:deskcolor="#d1d1d1"
     inkscape:zoom="0.96625"
     inkscape:cx="399.48254"
     inkscape:cy="400"
     inkscape:window-width="1920"
     inkscape:window-height="991"
     inkscape:window-x="-9"
     inkscape:window-y="-9"
     inkscape:window-maximized="1"
     inkscape:current-layer="g1" />
  <g
     inkscape:groupmode="layer"
     inkscape:label="Image"
     id="g1">
    <path
       style="fill:#f58d54;fill-opacity:1"
       d="m 283.15024,554.47297 c -1.65176,-1.38987 -3.28955,-3.83077 -3.63953,-5.42422 l -0.63633,-2.89718 -30.68719,-0.32579 L 217.5,545.5 l -6.2618,-2.89186 c -6.73045,-3.10829 -11.78223,-7.95341 -15.44489,-14.81308 L 193.5,523.5 l -0.26666,-114.49293 -0.26666,-114.49293 1.67488,-5.3249 c 2.19477,-6.97775 8.7759,-14.26484 16.15583,-17.88888 L 216.5,268.5 l 31.11397,-0.3243 31.11398,-0.32431 1.17442,-3.91987 C 281.16373,259.72147 284.88236,257 289.37361,257 293.11437,257 298,261.58122 298,265.08889 V 268 h 13.5 13.5 l 0.006,-10.75 c 0.003,-5.9125 0.50487,-12.54852 1.11512,-14.7467 1.44848,-5.2176 8.165,-11.93412 13.3826,-13.3826 2.72091,-0.75537 23.04302,-1.11133 63.66379,-1.11512 l 59.6671,-0.006 4.42502,1.89679 c 5.16328,2.21324 9.98073,7.62299 11.59936,13.02549 0.62779,2.09537 1.14143,8.59505 1.14143,14.44374 V 268 h 13.025 l 13.025,0 0.55227,-2.75 c 1.00332,-4.99604 4.85099,-8.25 9.75526,-8.25 3.37104,0 8.25207,4.29798 8.97264,7.90084 l 0.588,2.94 29.29091,0.38963 c 31.4629,0.41852 32.61878,0.58978 40.59779,6.01531 5.45982,3.71253 9.79591,9.67753 11.70299,16.09937 L 609,295.363 l 0,112.30777 v 112.30778 l -1.92501,5.06622 c -2.94339,7.74636 -8.12326,13.36112 -15.82669,17.15544 l -6.6994,3.29979 -29.31536,0.32958 -29.31537,0.32958 -0.588,2.94 C 524.57916,552.85419 519.68334,557 516,557 c -3.67733,0 -8.66862,-4.21476 -9.50594,-8.02703 L 505.84109,546 H 401.92054 298 v 2.91111 C 298,552.572 293.07325,557 289,557 c -1.58548,0 -4.17702,-1.11951 -5.84976,-2.52703 z M 235,521.77352 v -4.22649 L 227.77503,510.27352 220.55006,503 H 216.27503 212 v 7.04966 c 0,12.29031 3.51664,15.84274 15.75,15.9103 L 235,526 Z m 44,-8.55472 v -12.7812 l -13.25,-3.41411 -13.25,-3.4141 -2.75,-2.72777 c -1.7169,-1.70303 -2.74644,-3.78977 -2.74053,-5.5547 0.005,-1.5548 2.23197,-11.09818 4.94836,-21.2075 6.34059,-23.59714 8.43644,-26.02625 19.54767,-22.656 2.74697,0.83321 5.557,1.5198 6.2445,1.52576 L 279,443 V 365.5 288 h -12 -12 v 6.54966 c 0,3.70983 -0.61376,7.72049 -1.41555,9.25 -0.77855,1.48519 -6.78275,7.98784 -13.34267,14.45034 L 228.31466,330 H 220.15733 212 v 76.92775 76.92774 l 5.35608,-0.55279 c 8.57573,-0.8851 10.97961,0.50011 24.65187,14.20527 l 12.47795,12.50798 0.36293,7.99202 L 255.21177,526 H 267.10589 279 Z M 506.25,476.75 c 0.2898,-57.09103 0.21717,-71.61616 -0.36101,-72.19434 -0.22977,-0.22977 -3.56129,0.46158 -7.40338,1.53634 -8.93365,2.49903 -23.44531,6.4056 -35.21806,9.48077 l -9.23244,2.41161 -3.46198,-1.6509 c -1.90408,-0.90799 -3.92562,-2.81698 -4.4923,-4.24219 C 443.7494,406.22773 436,376.04005 436,372.82155 c 0,-6.43968 1.83412,-7.26781 37.21329,-16.80219 L 505.5,347.31836 505.76488,317.65918 506.02976,288 H 443.51488 381 l -0.0147,12.25 -0.0147,12.25 L 394,325 l 13.02941,12.5 -0.0147,35.31574 c -0.01,23.35785 -0.38055,35.99935 -1.09519,37.33466 -2.22069,4.1494 -5.79963,4.59037 -36.25164,4.4667 L 340.83574,414.5 337.91787,411.23422 335,407.96845 V 373.31434 338.66023 L 348.5,325.03588 362,311.41153 V 299.70576 288 H 330.5 299 v 80.5 c 0,44.275 0.17157,80.5 0.38126,80.5 2.37666,0 52.29257,14.21149 54.11881,15.40809 4.86527,3.18785 4.70087,5.36617 -2.42207,32.09191 l -3.9978,15 -2.59586,2.25 c -1.42773,1.2375 -3.77611,2.25 -5.21862,2.25 -2.03111,0 -27.53399,-6.36782 -38.51572,-9.617 L 299,505.86522 V 515.93261 526 H 402.5 506 Z M 547,518.32277 v -7.67724 l 13.46212,-13.56363 13.46213,-13.56363 8.03787,-0.36502 L 590,482.78823 V 406.39411 330 h -8.17465 l -8.17464,0 -13.06618,-12.96112 -13.06617,-12.96111 -0.36506,-8.03889 L 546.78823,288 H 536.39411 526 v 27.06739 27.06739 l 1.96436,-0.62347 C 537.59241,338.45549 555.74937,334 558.57439,334 c 6.10885,0 7.43902,2.41524 13.27048,24.09565 3.41885,12.71073 5.04501,20.49493 4.62831,22.15517 -1.2201,4.86128 -4.32261,6.27088 -26.97318,12.25503 -12.1,3.19675 -22.40047,6.16366 -22.88994,6.59315 -0.48946,0.42948 -0.87191,6.9954 -0.84988,14.59094 0.022,7.59553 0.085,35.97256 0.13994,63.06006 L 526,526 h 10.5 10.5 z m 37.07955,5.97117 C 588.16604,521.87999 590,517.32795 590,509.59887 V 503 h -4.22788 -4.22787 l -7.77213,7.72654 L 566,518.45308 V 522.22654 526 h 7.59571 c 5.36424,0 8.44418,-0.50121 10.48384,-1.70606 z M 333.71291,486.75 c 1.10751,-3.9875 1.73767,-7.54602 1.40037,-7.90782 -0.3373,-0.3618 -7.81328,-2.51376 -16.61328,-4.78212 -8.8,-2.26837 -16.7875,-4.36517 -17.75,-4.65957 L 299,468.86522 v 8.52885 8.52884 l 4.25,1.14447 c 20.87279,5.62076 25.45809,6.79183 26.84963,6.85733 1.15364,0.0543 2.16105,-1.94606 3.61328,-7.17471 z M 279,471.5 V 463 l -2,-0.15 c -1.1,-0.0825 -2.53571,-0.195 -3.19047,-0.25 -1.15671,-0.0972 -4.76864,10.16143 -4.79595,13.62141 -0.013,1.65319 4.0499,3.47264 8.23642,3.6884 L 279,480 Z m 196.27462,-78.95762 c 6.72396,-1.9017 15.83264,-4.3976 20.24152,-5.54645 4.40887,-1.14885 8.59076,-2.44397 9.29309,-2.87803 0.90599,-0.55993 1.19182,-3.10892 0.98387,-8.77407 l -0.2931,-7.98487 -14,3.83942 c -7.7,2.11167 -15.8,4.25162 -18,4.75543 -2.2,0.50381 -6.75584,1.66141 -10.12409,2.57245 l -6.12408,1.65644 0.76124,3.15865 c 1.95322,8.10453 3.47105,12.65865 4.21896,12.65865 0.44947,0 6.31864,-1.55593 13.04259,-3.45762 z M 388,370.72792 v -24.27208 l -8.32193,-8.2787 -8.32193,-8.2787 -8.17807,7.81294 L 355,345.52431 V 370.26215 395 h 16.5 16.5 z m 161.8445,1.65164 5.3445,-1.49037 -0.65795,-2.6946 c -0.36188,-1.48202 -1.32528,-5.01905 -2.14089,-7.86005 l -1.48292,-5.16546 -9.20362,2.4421 c -5.06199,1.34315 -10.66612,2.91501 -12.45362,3.49301 L 526,362.1551 v 8.32274 8.32274 l 9.25,-2.46533 c 5.0875,-1.35592 11.65503,-3.13599 14.5945,-3.95569 z M 227.4594,303.50818 235,296.01637 V 292.00818 288 h -7.53518 C 215.47879,288 212,291.58801 212,303.95034 V 311 h 3.9594 3.9594 z M 590,304.46788 C 590,291.69696 586.30698,288 573.54966,288 H 566 v 3.72788 3.72787 l 7.72654,7.77213 L 581.45308,311 H 585.72654 590 Z M 361.78498,257.75 361.5,247.5 h -7 -7 l -0.28498,10.25 -0.28499,10.25 H 354.5 362.06997 Z M 457,257.5 V 247 h -38 -38 v 10.5 10.5 h 38 38 z"
       id="path9" />
  </g>
</svg>
