<?xml version="1.0" encoding="UTF-8" standalone="no"?>
<!-- Created with Inkscape (http://www.inkscape.org/) -->

<svg
   version="1.1"
   id="svg1"
   width="1365"
   height="2048"
   viewBox="0 0 1365 2048"
   sodipodi:docname="Figma-logo.svg"
   inkscape:version="1.4.2 (f4327f4, 2025-05-13)"
   xmlns:inkscape="http://www.inkscape.org/namespaces/inkscape"
   xmlns:sodipodi="http://sodipodi.sourceforge.net/DTD/sodipodi-0.dtd"
   xmlns="http://www.w3.org/2000/svg"
   xmlns:svg="http://www.w3.org/2000/svg">
  <defs
     id="defs1" />
  <sodipodi:namedview
     id="namedview1"
     pagecolor="#ffffff"
     bordercolor="#000000"
     borderopacity="0.25"
     inkscape:showpageshadow="2"
     inkscape:pageopacity="0.0"
     inkscape:pagecheckerboard="0"
     inkscape:deskcolor="#d1d1d1"
     inkscape:zoom="0.37744141"
     inkscape:cx="682.2251"
     inkscape:cy="1024"
     inkscape:window-width="1920"
     inkscape:window-height="991"
     inkscape:window-x="-9"
     inkscape:window-y="-9"
     inkscape:window-maximized="1"
     inkscape:current-layer="g2" />
  <g
     inkscape:groupmode="layer"
     inkscape:label="Image"
     id="g1">
    <g
       id="g2"
       transform="translate(-2.6494163,5.2988355)">
      <path
         style="fill:#fefefe"
         d="M 0.13745904,1887.25 C 0.2213548,1789.139 0.61077353,1730.3967 1.1368213,1736.5 13.973643,1885.4358 126.3107,2010.8157 273.5,2040.486 c 26.11423,5.264 34.01184,5.9633 67.5,5.9765 40.26631,0.016 60.57048,-2.638 94.24706,-12.3183 124.29662,-35.7288 217.81396,-138.5127 241.69483,-265.6442 5.82137,-30.9904 5.40714,-5.116 6.01943,-376 0.30871,-187 0.67165,-338.2 0.80653,-336 0.44579,7.271 4.16402,30.3166 6.73609,41.7504 29.78693,132.4133 136.16024,235.3134 269.49606,260.6967 22.73683,4.3284 35.47746,5.4183 63.5,5.4318 29.0942,0.014 41.9431,-1.128 66.4479,-5.9061 57.641,-11.2391 115.7507,-39.9952 159.1107,-78.7375 68.5131,-61.2165 107.6272,-140.0175 115.2735,-232.2353 0.1824,-2.2 0.4073,222.0125 0.4998,498.25 L 1365,2048 H 682.5 0 Z M 0.34941444,1363 c 0,-177.375 0.14504012,-320.475 0.32231138,-318 5.90573288,82.4538 38.71530518,156.629 95.19157618,215.2071 58.683298,60.8672 137.157768,97.6409 221.272808,103.6901 6.83802,0.4917 9.17342,0.8779 5.86389,0.9696 -8.70728,0.2413 -31.48401,2.9706 -43.5,5.2125 C 126.7801,1398.573 11.945764,1526.6273 0.677876,1681 0.49722214,1683.475 0.34941444,1540.375 0.34941444,1363 Z m 0.011082,-679.5 c 0,-178.2 0.14425721,-321.75 0.32057158,-319 C 8.2921521,483.21115 80.845233,592.23723 188,645.98562 c 40.74475,20.43741 85.89878,32.84321 130,35.71673 l 11.5,0.74931 -11.36389,0.73421 C 235.68615,688.5129 159.08389,723.62411 99.460341,783.4175 40.695903,842.34933 5.8921593,919.53574 0.67492319,1002.5 0.5019885,1005.25 0.36049648,861.7 0.36049644,683.5 Z M 1363.6589,993.25 c -0.7828,-11.89158 -4.7138,-36.04748 -8.1776,-50.25 C 1325.5436,820.24646 1229.3131,723.23187 1107,692.49403 c -20.0626,-5.04181 -47.3765,-9.26577 -62.2106,-9.62053 -5.2666,-0.12595 -5.2592,-0.13006 1.7106,-0.95359 3.85,-0.45491 11.725,-1.32942 17.5,-1.94337 14.8047,-1.57391 42.0994,-7.22968 58,-12.01828 C 1235.0378,633.916 1323.8091,542.1062 1353.5332,428.5 c 5.6038,-21.41758 8.6127,-40.07558 10.8049,-67 0.1791,-2.2 0.4013,141.2375 0.4938,318.75 0.093,177.5125 0.011,322.75 -0.1816,322.75 -0.1923,0 -0.6385,-4.3875 -0.9914,-9.75 z M 683.16004,838.25 683,682 l 161.25,0.11497 c 138.4991,0.0987 159.4098,0.29762 148.20744,1.40951 C 827.95552,699.85208 700.60554,826.66532 683.68054,991 c -0.19825,1.925 -0.43248,-66.8125 -0.5205,-152.75 z m 680.47836,-525 C 1360.3271,259.49937 1339.2292,199.08738 1306.9752,151 1287.3444,121.73269 1256.9868,89.763147 1228.5,68.357985 1175.8214,28.775028 1113.1717,5.4112608 1047,0.67172582 c -2.475,-0.17727126 68.0625,-0.40092963 156.75,-0.4970186 L 1365,0 v 162 c 0,89.1 -0.1573,162 -0.3497,162 -0.1923,0 -0.6476,-4.8375 -1.0119,-10.75 z M 0.16003707,161.25 0,0 160.25,0.13745904 C 258.08082,0.22137624 316.60489,0.61063911 310.5,1.1368213 305,1.6108681 293.75,3.1259669 285.5,4.5037075 142.48426,28.387173 29.90464,140.02082 5.0304893,282.61651 3.3578043,292.20549 2.6559883,298.0404 0.65432731,319 0.47048807,320.925 0.24805746,249.9375 0.16003707,161.25 Z"
         id="path9" />
      <path
         style="fill:#98e5dd"
         d="m 682,1201.5 c 0,-285.35833 0.23114,-518.60219 0.51365,-518.31969 0.66261,0.66262 0.64877,1035.99059 -0.0139,1036.65319 C 682.22491,1720.1084 682,1486.8583 682,1201.5 Z m 331.1994,-519.24383 c 4.7847,-0.18291 12.8847,-0.18377 18,-0.002 5.1153,0.18186 1.2006,0.33151 -8.6994,0.33256 -9.9,10e-4 -14.0853,-0.14774 -9.3006,-0.33065 z"
         id="path8" />
      <path
         style="fill:#f98a75"
         d="M 506.74855,682.25002 681.9971,681.99441 682.25,340.74721 682.50291,-0.5 682.75145,341.25 683,683 507.25,682.75281 331.5,682.50562 Z M 1364.4113,341 c 0,-9.625 0.15,-13.5625 0.3333,-8.75 0.1833,4.8125 0.1833,12.6875 0,17.5 -0.1833,4.8125 -0.3333,0.875 -0.3333,-8.75 z"
         id="path7" />
      <path
         style="fill:#fd588e;fill-opacity:1"
         d="M 325,1364.3283 C 237.16297,1359.5101 156.47492,1322.9581 96.419067,1260.7803 43.649791,1206.1466 12.076509,1139.577 2.3766736,1062.5 -1.418559,1032.3422 0.26038703,990.54624 6.5790745,957.88464 34.985329,811.05135 158.46054,698.81284 307.85595,684.02507 314.50739,683.36669 383.27878,683 500.10595,683 H 682 v 341 341 l -175.75,-0.185 c -96.6625,-0.1017 -178.225,-0.3207 -181.25,-0.4867 z"
         id="path6"
         inkscape:label="tercero" />
      <path
         style="fill:#87fd19;fill-opacity:1"
         d="M 1007,1363.929 C 899.72802,1359.0188 800.369,1302.7494 740.49325,1213 710.28149,1167.7148 693.2987,1122.7328 685.33828,1066.9121 682.80771,1049.1672 682.78534,997.67741 685.30072,980.5 694.9121,914.86456 717.96223,860.41849 757.05973,811 767.74763,797.4907 797.4907,767.74763 811,757.05973 c 48.08353,-38.04135 102.6413,-61.62691 164.5,-71.11408 19.79562,-3.03601 61.7277,-3.79764 83.5,-1.51662 143.2231,15.00504 261.7759,118.58234 295.9609,258.57529 6.5914,26.99265 9.3539,50.76592 9.3539,80.49568 0,22.3373 -1.1026,36.4627 -4.3916,56.2572 -24.2383,145.8791 -140.8307,259.9079 -287.5192,281.1973 -7.7528,1.1252 -19.6778,2.2824 -26.5,2.5716 -6.8222,0.2892 -14.879,0.6578 -17.904,0.8191 -3.025,0.1613 -12.475,-0.026 -21,-0.4162 z"
         id="path5"
         inkscape:label="cuarto" />
      <path
         style="fill:#8660fd;fill-opacity:1"
         d="M 683,340.98562 V -0.09426136 l 182.75,0.38550607 c 197.4927,0.41660532 190.2978,0.22784966 219.75,5.76506969 150.6518,28.3235676 263.7514,152.5360256 277.5525,304.8238656 1.775,19.58571 0.7227,60.58625 -2.0178,78.61982 -9.4738,62.34236 -33.3247,116.83788 -72.8497,166.45012 -10.2622,12.88132 -37.1724,39.65066 -50.685,50.41973 -50.1984,40.00652 -104.9933,63.51574 -169.7673,72.83703 -15.1678,2.18273 -16.0195,2.19349 -199.9827,2.52535 L 683,682.06551 Z"
         id="path4"
         inkscape:label="segundo" />
      <path
         style="fill:#f1b11d;fill-opacity:1"
         d="M 318.5,681.31893 C 238.93213,676.21749 162.50332,642.05455 104.13535,585.5 46.455292,529.61199 11.124255,457.18545 2.4375712,377.02555 0.09593025,355.41711 0.8589289,312.59315 3.9435711,292.5 9.8865706,253.7877 20.395154,220.88124 37.715514,186.74692 85.714665,92.151969 174.51376,25.791641 279.5,6.0592922 309.40518,0.43856092 300.35957,0.67695875 498.75,0.28093859 L 682,-0.08485877 V 340.95757 682 l -179.25,-0.18025 c -98.5875,-0.0991 -181.5,-0.3245 -184.25,-0.50082 z"
         id="path3"
         inkscape:label="primero" />
      <path
         style="fill:#ce0909;fill-opacity:1"
         d="m 321.5,2046.4153 c -2.2,-0.2185 -8.95,-0.8687 -15,-1.4449 -58.05342,-5.5287 -116.32463,-27.7044 -165,-62.7923 C 119.88655,1966.5979 89.222333,1937.1701 73.583476,1917 25.233311,1854.6408 0.81510212,1784.1335 0.68284951,1706.5 0.61702456,1667.8602 5.5701948,1635.7522 17.031537,1600.5229 59.570756,1469.7678 177.25016,1376.9685 314.39522,1366.0286 322.57518,1365.3761 392.14181,1365 504.64522,1365 H 682 l -0.003,179.75 c -0.002,116.6204 -0.3694,183.7889 -1.04549,191.25 -8.68168,95.8078 -56.6908,182.7988 -132.99964,240.991 -49.80074,37.9774 -106.54349,60.6228 -170.45145,68.0251 -9.42788,1.0921 -49.10964,2.0835 -56,1.3992 z"
         id="path2"
         inkscape:label="quinto" />
    </g>
  </g>
</svg>
