<svg xmlns="http://www.w3.org/2000/svg" xmlns:xlink="http://www.w3.org/1999/xlink" style="display:none">

    <symbol id="figma" viewBox="0 0 1365 2048">
        <g>
            <path
                style="fill:#fefefe"
                d="M 0.13745904,1887.25 C 0.2213548,1789.139 0.61077353,1730.3967 1.1368213,1736.5 13.973643,1885.4358 126.3107,2010.8157 273.5,2040.486 c 26.11423,5.264 34.01184,5.9633 67.5,5.9765 40.26631,0.016 60.57048,-2.638 94.24706,-12.3183 124.29662,-35.7288 217.81396,-138.5127 241.69483,-265.6442 5.82137,-30.9904 5.40714,-5.116 6.01943,-376 0.30871,-187 0.67165,-338.2 0.80653,-336 0.44579,7.271 4.16402,30.3166 6.73609,41.7504 29.78693,132.4133 136.16024,235.3134 269.49606,260.6967 22.73683,4.3284 35.47746,5.4183 63.5,5.4318 29.0942,0.014 41.9431,-1.128 66.4479,-5.9061 57.641,-11.2391 115.7507,-39.9952 159.1107,-78.7375 68.5131,-61.2165 107.6272,-140.0175 115.2735,-232.2353 0.1824,-2.2 0.4073,222.0125 0.4998,498.25 L 1365,2048 H 682.5 0 Z M 0.34941444,1363 c 0,-177.375 0.14504012,-320.475 0.32231138,-318 5.90573288,82.4538 38.71530518,156.629 95.19157618,215.2071 58.683298,60.8672 137.157768,97.6409 221.272808,103.6901 6.83802,0.4917 9.17342,0.8779 5.86389,0.9696 -8.70728,0.2413 -31.48401,2.9706 -43.5,5.2125 C 126.7801,1398.573 11.945764,1526.6273 0.677876,1681 0.49722214,1683.475 0.34941444,1540.375 0.34941444,1363 Z m 0.011082,-679.5 c 0,-178.2 0.14425721,-321.75 0.32057158,-319 C 8.2921521,483.21115 80.845233,592.23723 188,645.98562 c 40.74475,20.43741 85.89878,32.84321 130,35.71673 l 11.5,0.74931 -11.36389,0.73421 C 235.68615,688.5129 159.08389,723.62411 99.460341,783.4175 40.695903,842.34933 5.8921593,919.53574 0.67492319,1002.5 0.5019885,1005.25 0.36049648,861.7 0.36049644,683.5 Z M 1363.6589,993.25 c -0.7828,-11.89158 -4.7138,-36.04748 -8.1776,-50.25 C 1325.5436,820.24646 1229.3131,723.23187 1107,692.49403 c -20.0626,-5.04181 -47.3765,-9.26577 -62.2106,-9.62053 -5.2666,-0.12595 -5.2592,-0.13006 1.7106,-0.95359 3.85,-0.45491 11.725,-1.32942 17.5,-1.94337 14.8047,-1.57391 42.0994,-7.22968 58,-12.01828 C 1235.0378,633.916 1323.8091,542.1062 1353.5332,428.5 c 5.6038,-21.41758 8.6127,-40.07558 10.8049,-67 0.1791,-2.2 0.4013,141.2375 0.4938,318.75 0.093,177.5125 0.011,322.75 -0.1816,322.75 -0.1923,0 -0.6385,-4.3875 -0.9914,-9.75 z M 683.16004,838.25 683,682 l 161.25,0.11497 c 138.4991,0.0987 159.4098,0.29762 148.20744,1.40951 C 827.95552,699.85208 700.60554,826.66532 683.68054,991 c -0.19825,1.925 -0.43248,-66.8125 -0.5205,-152.75 z m 680.47836,-525 C 1360.3271,259.49937 1339.2292,199.08738 1306.9752,151 1287.3444,121.73269 1256.9868,89.763147 1228.5,68.357985 1175.8214,28.775028 1113.1717,5.4112608 1047,0.67172582 c -2.475,-0.17727126 68.0625,-0.40092963 156.75,-0.4970186 L 1365,0 v 162 c 0,89.1 -0.1573,162 -0.3497,162 -0.1923,0 -0.6476,-4.8375 -1.0119,-10.75 z M 0.16003707,161.25 0,0 160.25,0.13745904 C 258.08082,0.22137624 316.60489,0.61063911 310.5,1.1368213 305,1.6108681 293.75,3.1259669 285.5,4.5037075 142.48426,28.387173 29.90464,140.02082 5.0304893,282.61651 3.3578043,292.20549 2.6559883,298.0404 0.65432731,319 0.47048807,320.925 0.24805746,249.9375 0.16003707,161.25 Z"
                />
            <path
                style="fill:#98e5dd"
                d="m 682,1201.5 c 0,-285.35833 0.23114,-518.60219 0.51365,-518.31969 0.66261,0.66262 0.64877,1035.99059 -0.0139,1036.65319 C 682.22491,1720.1084 682,1486.8583 682,1201.5 Z m 331.1994,-519.24383 c 4.7847,-0.18291 12.8847,-0.18377 18,-0.002 5.1153,0.18186 1.2006,0.33151 -8.6994,0.33256 -9.9,10e-4 -14.0853,-0.14774 -9.3006,-0.33065 z"
                />
            <path
                style="fill:#f98a75"
                d="M 506.74855,682.25002 681.9971,681.99441 682.25,340.74721 682.50291,-0.5 682.75145,341.25 683,683 507.25,682.75281 331.5,682.50562 Z M 1364.4113,341 c 0,-9.625 0.15,-13.5625 0.3333,-8.75 0.1833,4.8125 0.1833,12.6875 0,17.5 -0.1833,4.8125 -0.3333,0.875 -0.3333,-8.75 z"
                />
            <path
                style="fill:#fd588e;fill-opacity:1"
                d="M 325,1364.3283 C 237.16297,1359.5101 156.47492,1322.9581 96.419067,1260.7803 43.649791,1206.1466 12.076509,1139.577 2.3766736,1062.5 -1.418559,1032.3422 0.26038703,990.54624 6.5790745,957.88464 34.985329,811.05135 158.46054,698.81284 307.85595,684.02507 314.50739,683.36669 383.27878,683 500.10595,683 H 682 v 341 341 l -175.75,-0.185 c -96.6625,-0.1017 -178.225,-0.3207 -181.25,-0.4867 z"
                />
            <path
                style="fill:#87fd19;fill-opacity:1"
                d="M 1007,1363.929 C 899.72802,1359.0188 800.369,1302.7494 740.49325,1213 710.28149,1167.7148 693.2987,1122.7328 685.33828,1066.9121 682.80771,1049.1672 682.78534,997.67741 685.30072,980.5 694.9121,914.86456 717.96223,860.41849 757.05973,811 767.74763,797.4907 797.4907,767.74763 811,757.05973 c 48.08353,-38.04135 102.6413,-61.62691 164.5,-71.11408 19.79562,-3.03601 61.7277,-3.79764 83.5,-1.51662 143.2231,15.00504 261.7759,118.58234 295.9609,258.57529 6.5914,26.99265 9.3539,50.76592 9.3539,80.49568 0,22.3373 -1.1026,36.4627 -4.3916,56.2572 -24.2383,145.8791 -140.8307,259.9079 -287.5192,281.1973 -7.7528,1.1252 -19.6778,2.2824 -26.5,2.5716 -6.8222,0.2892 -14.879,0.6578 -17.904,0.8191 -3.025,0.1613 -12.475,-0.026 -21,-0.4162 z"
                />
            <path
                style="fill:#8660fd;fill-opacity:1"
                d="M 683,340.98562 V -0.09426136 l 182.75,0.38550607 c 197.4927,0.41660532 190.2978,0.22784966 219.75,5.76506969 150.6518,28.3235676 263.7514,152.5360256 277.5525,304.8238656 1.775,19.58571 0.7227,60.58625 -2.0178,78.61982 -9.4738,62.34236 -33.3247,116.83788 -72.8497,166.45012 -10.2622,12.88132 -37.1724,39.65066 -50.685,50.41973 -50.1984,40.00652 -104.9933,63.51574 -169.7673,72.83703 -15.1678,2.18273 -16.0195,2.19349 -199.9827,2.52535 L 683,682.06551 Z"
                />
            <path
                style="fill:#f1b11d;fill-opacity:1"
                d="M 318.5,681.31893 C 238.93213,676.21749 162.50332,642.05455 104.13535,585.5 46.455292,529.61199 11.124255,457.18545 2.4375712,377.02555 0.09593025,355.41711 0.8589289,312.59315 3.9435711,292.5 9.8865706,253.7877 20.395154,220.88124 37.715514,186.74692 85.714665,92.151969 174.51376,25.791641 279.5,6.0592922 309.40518,0.43856092 300.35957,0.67695875 498.75,0.28093859 L 682,-0.08485877 V 340.95757 682 l -179.25,-0.18025 c -98.5875,-0.0991 -181.5,-0.3245 -184.25,-0.50082 z"
                />
            <path
                style="fill:#ce0909;fill-opacity:1"
                d="m 321.5,2046.4153 c -2.2,-0.2185 -8.95,-0.8687 -15,-1.4449 -58.05342,-5.5287 -116.32463,-27.7044 -165,-62.7923 C 119.88655,1966.5979 89.222333,1937.1701 73.583476,1917 25.233311,1854.6408 0.81510212,1784.1335 0.68284951,1706.5 0.61702456,1667.8602 5.5701948,1635.7522 17.031537,1600.5229 59.570756,1469.7678 177.25016,1376.9685 314.39522,1366.0286 322.57518,1365.3761 392.14181,1365 504.64522,1365 H 682 l -0.003,179.75 c -0.002,116.6204 -0.3694,183.7889 -1.04549,191.25 -8.68168,95.8078 -56.6908,182.7988 -132.99964,240.991 -49.80074,37.9774 -106.54349,60.6228 -170.45145,68.0251 -9.42788,1.0921 -49.10964,2.0835 -56,1.3992 z"
                />
        </g>
    </symbol>

    <symbol id="google" viewBox="0 0 2048 2048">
        <g>
            <path
                style="fill:#fefefe"
                d="M 0,1024 V 0 H 1024 2048 V 1024 2048 H 1024 0 Z m 1065.5,937.9959 c 175.4639,-7.2546 326.7955,-51.586 460,-134.7536 83.0265,-51.8384 159.0319,-121.6718 218.4842,-200.7423 101.6342,-135.1715 162.3398,-301.9139 177.4832,-487.5 6.4945,-79.5909 4.0674,-169.67009 -6.5608,-243.5 -2.1685,-15.06425 -5.6114,-36.59209 -6.4369,-40.25 L 1907.9619,853 H 1465.9809 1024 v 182 182 h 252.5191 252.519 l -0.4982,2.25 c -10.5196,47.507 -20.3884,76.4811 -38.0938,111.8407 -56.9711,113.7774 -166.5241,199.9851 -300.9978,236.8564 -76.8594,21.0741 -166.4364,27.0244 -242.06201,16.0794 -99.90277,-14.4586 -192.71984,-56.3568 -273.9225,-123.6504 C 656.97174,1446.709 617.51595,1407.2941 604.01563,1391 544.88514,1319.6329 506.39639,1243.2015 484.64776,1153.9579 466.01359,1077.4942 463.96179,998.18227 478.63407,921.5 494.90531,836.46105 531.92892,752.5436 583.41538,684.00347 614.62766,642.45286 657.08043,599.94701 698.5,568.77495 c 61.98659,-46.65065 136.95578,-81.07087 211.84129,-97.2616 99.78611,-21.57441 209.88061,-13.91066 302.32521,21.04503 59.226,22.3949 113.4168,55.34115 160.1978,97.39511 l 10.3643,9.31701 134.4772,-134.47719 134.4771,-134.47719 -5.8414,-5.53443 C 1610.2188,290.55772 1552.997,247.24505 1504.9021,217.72265 1378.568,140.17409 1242.0407,97.62051 1085,86.845187 1061.0204,85.199834 986.75057,85.195162 964.5,86.837606 823.02559,97.280661 698.14081,133.0744 579.70071,197.1265 471.07807,255.86934 373.30505,337.19351 295.29376,433.68625 142.17007,623.08605 67.919321,863.44613 88.532933,1103 c 16.173977,187.9602 90.018757,369.3009 209.919697,515.5 29.40984,35.8604 74.40595,82.5051 107.04737,110.9695 184.98073,161.3094 415.78186,242.6236 660,232.5264 z"
                />
            <path
                style="fill:#f3a49d"
                d="m 85.436742,1024 c 0,-14.575 0.139795,-20.5375 0.310654,-13.25 0.17086,7.2875 0.17086,19.2125 0,26.5 -0.170859,7.2875 -0.310654,1.325 -0.310654,-13.25 z m 382.960648,0 c 0,-7.975 0.1553,-11.2375 0.34512,-7.25 0.18981,3.9875 0.18981,10.5125 0,14.5 -0.18982,3.9875 -0.34512,0.725 -0.34512,-7.25 z M 636.5,622 c 7.13413,-7.15 13.19614,-13 13.47114,-13 0.275,0 -5.33701,5.85 -12.47114,13 -7.13413,7.15 -13.19614,13 -13.47114,13 -0.275,0 5.33701,-5.85 12.47114,-13 z"
                />
            <path
                style="fill:#82aef7"
                d="m 1244.75,853.25001 c 121.6875,-0.13995 320.8125,-0.13995 442.5,0 121.6875,0.13995 22.125,0.25446 -221.25,0.25446 -243.375,0 -342.9375,-0.11451 -221.25,-0.25446 z"
                />
            <path
                style="fill:#f9ba04"
                d="M 180.53141,1433.0626 C 132.61929,1337.5286 99.549175,1220.2599 89.567766,1110.5 c -4.97925,-54.754 -4.97925,-118.246 0,-173 C 98.638952,837.74927 126.01487,734.11087 167.45896,642.62334 175.94309,623.89468 185.75718,604 186.51194,604 c 0.27237,0 32.55611,24.88636 71.74164,55.30302 55.76178,43.2835 157.72238,122.39474 233.99642,181.55783 3.1625,2.45304 5.75,4.62632 5.75,4.8295 0,0.20319 -2.06066,6.99348 -4.57925,15.08954 -23.53001,75.63776 -30.54281,156.22691 -20.32412,233.55911 4.02321,30.4465 11.44722,64.3458 20.38197,93.0674 3.78445,12.1656 4.39662,15.1267 3.32925,16.1041 -0.71932,0.6588 -16.83285,13.0592 -35.80785,27.5566 -18.975,14.4974 -71.175,54.9246 -116,89.8383 -44.825,34.9136 -98.7227,76.8928 -119.77268,93.287 -21.04997,16.3942 -38.48371,29.8076 -38.74164,29.8076 -0.25794,0 -2.93736,-4.9218 -5.95427,-10.9374 z"
                />
            <path
                style="fill:#4184f2"
                d="m 1511.435,1631.8467 c -73.1143,-56.7343 -141.4139,-109.7141 -151.7771,-117.7329 -18.5481,-14.3521 -18.8059,-14.6032 -16.5275,-16.0967 40.3621,-26.4556 86.7847,-71.9465 116.2642,-113.9307 23.7704,-33.8536 43.7997,-74.5678 56.9974,-115.8611 4.528,-14.1671 10.9315,-38.8202 12.2017,-46.9753 l 0.6619,-4.25 H 1276.6278 1024 V 1035.5 854 h 441.8973 441.8974 l 1.1268,6.47035 c 29.0354,166.73395 17.6891,349.04855 -31.3192,503.24215 -16.2153,51.0178 -32.5203,90.7148 -57.0049,138.7875 -32.9519,64.6972 -69.2248,118.3048 -117.0583,173 -14.0803,16.1001 -56.5788,59.5 -58.2642,59.5 -0.4977,0 -60.7257,-46.419 -133.8399,-103.1533 z"
                />
            <path
                style="fill:#ec665b"
                d="m 1517,464.5 c 73.9735,-73.975 134.7222,-134.5 134.9972,-134.5 0.275,0 -60.0237,60.525 -133.9972,134.5 -73.9735,73.975 -134.7222,134.5 -134.9972,134.5 -0.275,0 60.0237,-60.525 133.9972,-134.5 z"
                />
            <path
                style="fill:#e94234"
                d="M 491.97291,840.67074 C 488.96281,838.31484 451.175,808.98583 408,775.49517 214.27077,625.22021 187.7644,604.5496 187.32524,603.40518 c -0.25667,-0.66886 3.69165,-9.02115 8.77403,-18.56065 C 316.41665,359.0122 521.9532,191.83319 765,122.11293 846.33256,98.781917 922.50171,87.60555 1009,86.310591 c 138.4659,-2.072963 261.6265,21.523639 383,73.379749 88.8223,37.9488 181.3122,98.13884 252.8966,164.57861 l 6.3966,5.9369 -134.0476,134.04764 -134.0477,134.04764 -8.8489,-7.9105 C 1293.7939,518.37872 1197.7627,475.13695 1090.5,462.57669 1047.6067,457.55396 999.16981,457.70194 957,462.98454 778.00074,485.40773 618.64937,598.3614 532.79388,763.67626 520.76415,786.83952 509.54007,812.59058 501.48815,835.5 c -1.54646,4.4 -3.08862,8.32719 -3.42704,8.72709 -0.33841,0.3999 -3.0781,-1.20046 -6.0882,-3.55635 z"
                />
            <path
                style="fill:#33a752"
                d="m 995,1961.9257 c -127.87126,-3.5562 -255.92768,-34.2862 -371.18547,-89.0743 -178.85714,-85.0202 -325.41831,-223.0171 -421.55781,-396.9241 -9.05231,-16.3747 -16.54135,-31.0042 -16.06991,-31.3917 0.17226,-0.1416 31.13819,-24.2504 68.81319,-53.5751 37.675,-29.3247 90.775,-70.6725 118,-91.8839 76.35962,-59.4929 124.3934,-96.0944 125.06551,-95.2993 0.33599,0.3975 1.87058,4.3227 3.41018,8.7227 16.36436,46.7674 43.97694,99.9973 72.74903,140.2415 96.53964,135.032 240.78349,219.7292 399.77528,234.7405 45.883,4.332 99.5601,2.499 149,-5.0882 77.4762,-11.8898 152.7011,-39.9849 211.384,-78.9481 5.2077,-3.4578 5.9813,-3.6991 7.9428,-2.4782 1.907,1.1869 41.166,31.5986 254.281,196.9767 25.9093,20.1057 47.249,37.0058 47.4217,37.5558 0.1726,0.55 -5.4144,6.0517 -12.4155,12.2259 -114.4896,100.9677 -256.0124,168.2298 -416.114,197.7682 -49.4507,9.1236 -104.7317,14.9545 -152,16.0326 -12.1,0.276 -26.725,0.6382 -32.5,0.8049 -5.775,0.1668 -21.975,-0.016 -36,-0.4059 z"
                />
        </g>
    </symbol>

</svg>